<?xml version="1.0" encoding="UTF-8" standalone="no"?>
<svg
   xmlns:dc="http://purl.org/dc/elements/1.1/"
   xmlns:cc="http://creativecommons.org/ns#"
   xmlns:rdf="http://www.w3.org/1999/02/22-rdf-syntax-ns#"
   xmlns:svg="http://www.w3.org/2000/svg"
   xmlns="http://www.w3.org/2000/svg"
   xmlns:xlink="http://www.w3.org/1999/xlink"
   xmlns:sodipodi="http://sodipodi.sourceforge.net/DTD/sodipodi-0.dtd"
   xmlns:inkscape="http://www.inkscape.org/namespaces/inkscape"
   viewBox="0 0 66.323021 68.029999"
   version="1.1"
   id="svg37"
   sodipodi:docname="icon.svg"
   inkscape:version="1.0.2 (e86c870879, 2021-01-15)">
  <metadata
     id="metadata41">
    <rdf:RDF>
      <cc:Work
         rdf:about="">
        <dc:format>image/svg+xml</dc:format>
        <dc:type
           rdf:resource="http://purl.org/dc/dcmitype/StillImage" />
        <dc:title></dc:title>
      </cc:Work>
    </rdf:RDF>
  </metadata>
  <sodipodi:namedview
     pagecolor="#ffffff"
     bordercolor="#666666"
     borderopacity="1"
     objecttolerance="10"
     gridtolerance="10"
     guidetolerance="10"
     inkscape:pageopacity="0"
     inkscape:pageshadow="2"
     inkscape:window-width="640"
     inkscape:window-height="480"
     id="namedview39"
     showgrid="false"
     inkscape:zoom="14.331913"
     inkscape:cx="33.16151"
     inkscape:cy="34.014999"
     inkscape:current-layer="g35" />
  <defs
     id="defs15">
    <filter
       id="d">
      <feGaussianBlur
         stdDeviation="1.2625"
         id="feGaussianBlur2" />
    </filter>
    <filter
       id="e"
       x="-.04161"
       y="-.1075"
       width="1.0832"
       height="1.215">
      <feGaussianBlur
         stdDeviation=".5375"
         id="feGaussianBlur5" />
    </filter>
    <linearGradient
       id="a">
      <stop
         stop-color="#7c7c7c"
         offset="0"
         id="stop8" />
      <stop
         stop-color="#e6e3e3"
         offset="1"
         id="stop10" />
    </linearGradient>
    <linearGradient
       id="b"
       x1="186.01"
       x2="186.76"
       y1="-214.19"
       y2="-260.49"
       gradientUnits="userSpaceOnUse"
       xlink:href="#a" />
    <linearGradient
       id="c"
       x1="200.64"
       x2="192.52"
       y1="-254.45"
       y2="-246.04"
       gradientUnits="userSpaceOnUse"
       xlink:href="#a" />
  </defs>
  <g
     transform="translate(-153.27 263.16)"
     id="g35">
    <path
       d="m170.56-255.14v56h45v-40.108l-16.023-15.892z"
       filter="url(#d)"
       opacity=".6"
       stroke="#000"
       stroke-dashoffset="117.54"
       stroke-linecap="round"
       stroke-linejoin="round"
       stroke-width="2"
       id="path17" />
    <path
       d="m163.56-262.14v56h45v-40.108l-16.023-15.892z"
       fill="url(#b)"
       stroke="#000"
       stroke-dashoffset="117.54"
       stroke-linecap="round"
       stroke-linejoin="round"
       stroke-width="2"
       id="path19" />
    <path
       d="m155.56-251.14h29a1 1 0 0 1 1 1v10a1 1 0 0 1 -1 1h-29a1 1 0 0 1 -1 -1v-10a1 1 0 0 1 1 -1"
       filter="url(#e)"
       id="path21" />
    <path
       transform="translate(-284.37 -408.39)"
       d="m478 161.25c-3.4777-1.3759 1.8547 33.049 15 34-12.991-2.2906-40.731-12.262-44 6 11.19-4.6489 20.083-26.734 29-40z"
       fill="none"
       stroke="#f00"
       stroke-linejoin="bevel"
       stroke-width="3"
       id="path23" />
    <path
       d="m208.56-246.14-15.989-15.989v15.989h15.989z"
       fill="url(#c)"
       stroke="#000"
       stroke-dashoffset="117.54"
       stroke-linecap="round"
       stroke-linejoin="round"
       stroke-width="2"
       id="path25" />
    <path
       d="m163.56-262.14v56h45v-40.108l-16.023-15.892z"
       fill="none"
       stroke="#000"
       stroke-dashoffset="117.54"
       stroke-linecap="round"
       stroke-linejoin="round"
       stroke-width="2"
       id="path27" />
    <path
       d="m155.56-251.14h29a1 1 0 0 1 1 1v10a1 1 0 0 1 -1 1h-29a1 1 0 0 1 -1 -1v-10a1 1 0 0 1 1 -1"
       fill="#f00"
       id="path29" />
    <g
       aria-label="PDF"
       transform="scale(.896,1.1161)"
       id="text33"
       style="font-weight:bold;font-size:10.208px;font-family:Sans;letter-spacing:0;word-spacing:0;text-anchor:middle;fill:#ffffff">
      <path
         d="m 178.94839,-223.35848 h 3.18501 q 1.42055,0 2.17817,0.63301 0.76261,0.62804 0.76261,1.79438 0,1.17133 -0.76261,1.80434 -0.75762,0.62803 -2.17817,0.62803 h -1.26603 v 2.58191 h -1.91898 z m 1.91898,1.39064 v 2.07848 h 1.06167 q 0.55825,0 0.8623,-0.26915 0.30405,-0.27414 0.30405,-0.77258 0,-0.49844 -0.30405,-0.76759 -0.30405,-0.26916 -0.8623,-0.26916 z"
         id="path866" />
      <path
         d="m 188.34892,-221.90803 v 4.54077 h 0.68784 q 1.17631,0 1.79438,-0.58317 0.62304,-0.58318 0.62304,-1.69469 0,-1.10653 -0.61806,-1.68472 -0.61806,-0.57819 -1.79936,-0.57819 z m -1.91899,-1.45045 h 2.02366 q 1.69469,0 2.52209,0.24423 0.83239,0.23925 1.42554,0.81744 0.52336,0.50342 0.77756,1.16136 0.2542,0.65794 0.2542,1.49033 0,0.84236 -0.2542,1.50528 -0.2542,0.65794 -0.77756,1.16136 -0.59813,0.57819 -1.4355,0.82242 -0.83738,0.23925 -2.51213,0.23925 h -2.02366 z"
         id="path868" />
      <path
         d="m 194.90337,-223.35848 h 5.17877 v 1.45045 h -3.25978 v 1.38566 h 3.06539 v 1.45045 h -3.06539 v 3.15511 h -1.91899 z"
         id="path870" />
    </g>
  </g>
</svg>
